<?xml version="1.0" encoding="utf-8"?>
<!-- Generator: Adobe Illustrator 26.0.1, SVG Export Plug-In . SVG Version: 6.00 Build 0)  -->
<!DOCTYPE svg PUBLIC "-//W3C//DTD SVG 1.1//EN" "http://www.w3.org/Graphics/SVG/1.1/DTD/svg11.dtd" [
	<!ENTITY st0 "fill-rule:evenodd;clip-rule:evenodd;fill:#796BAF;">
	<!ENTITY st1 "fill:#3E3A39;">
]>
<svg version="1.1" id="圖層_1" xmlns="http://www.w3.org/2000/svg" xmlns:xlink="http://www.w3.org/1999/xlink" x="0px" y="0px"
	 viewBox="0 0 200 105.41" style="enable-background:new 0 0 200 105.41;" xml:space="preserve">
<path style="&st0;" d="M62.69,4.85v26.23c0,7.61,1.65,13.36,4.94,17.23c4.15,4.85,9.24,7.29,15.29,7.29c3.55,0,6.75-0.82,9.59-2.46
	c-3.82-5.09-5.75-10.94-5.8-17.53c-0.05-6.82,1.77-12.8,5.47-17.93c-2.79-1.49-5.92-2.23-9.39-2.23c-3.72,0-7.25,1.03-10.61,3.06
	c-1.41,0.88-3.16,2.25-5.26,4.13v-11.1c5.09-4.15,10.69-6.22,16.8-6.22c3.83,0,7.59,0.79,11.27,2.35c1.7,0.72,3.31,1.58,4.81,2.57
	c4.85-3.34,10.43-5.03,16.72-5.08c8.64-0.06,15.84,3,21.59,9.18c1.77,1.87,3.63,4.51,5.58,7.94l-7.78,5.17l-0.02-0.04L112.3,43.1
	c-0.92,3.69-2.52,7.09-4.79,10.2c3.16,2.05,6.74,3.06,10.72,3.03c4-0.03,7.79-1.16,11.37-3.33c3.96-2.4,6.07-6.22,8.08-11.47h9.36
	c-1.9,6.73-4.72,11.9-8.47,15.57c-5.58,5.58-12.62,8.41-21.08,8.47c-6.54,0.05-12.31-1.63-17.31-5.05
	c-4.98,3.48-10.8,5.21-17.47,5.21c-5.66,0-10.9-1.45-15.69-4.38C57.36,55.39,52.55,46,52.55,33.22V4.85H62.69L62.69,4.85z
	 M100.12,45.38c1.64-2.93,2.46-6.2,2.46-9.84c0-4.11-0.97-7.72-2.92-10.85c-1.57,2.96-2.34,6.28-2.31,9.98
	C97.38,38.6,98.3,42.17,100.12,45.38L100.12,45.38z M107.04,16.91c3.51,4.43,5.53,9.51,6.05,15.25l17.69-11.76
	c-0.3-0.27-0.6-0.53-0.91-0.78c-1.43-1.57-3.23-2.81-5.38-3.72c-2.42-1.03-5.08-1.52-7.96-1.5C113,14.42,109.84,15.26,107.04,16.91z
	"/>
<g>
	<path style="&st1;" d="M6.47,71.73c0.37,0,0.71,0.09,1,0.26c0.3,0.19,0.46,0.43,0.47,0.74c0,0.27-0.08,0.66-0.25,1.16
		c0,0,0,0.01,0,0.02h2.86v-1.18c0-0.43,0.09-0.74,0.28-0.93c0.19-0.19,0.51-0.28,0.98-0.28c0.48,0,0.8,0.09,0.96,0.28
		c0.19,0.19,0.28,0.5,0.28,0.93v1.18h4.56c0.42,0,0.7,0.09,0.82,0.26c0.16,0.16,0.25,0.46,0.25,0.88c0,0.37-0.06,0.64-0.18,0.81
		c-0.18,0.2-0.47,0.3-0.89,0.3h-4.56v2.47h5.26c0.42,0,0.72,0.08,0.89,0.25c0.17,0.14,0.25,0.43,0.25,0.88
		c0,0.34-0.06,0.59-0.19,0.75c-0.21,0.25-0.53,0.37-0.95,0.37h-3.58v4.14c0,0.17,0.1,0.26,0.3,0.26h1.17c0.08,0,0.2-0.07,0.35-0.23
		c0.14-0.21,0.21-0.67,0.21-1.39c0.04-0.26,0.15-0.46,0.35-0.6c0.15-0.16,0.37-0.25,0.65-0.25c0.4,0,0.72,0.11,0.98,0.33
		c0.31,0.21,0.46,0.57,0.47,1.09c0,1.02-0.14,1.78-0.42,2.28c-0.4,0.67-0.96,1.03-1.67,1.09h-3.32c-1.06,0-1.6-0.72-1.6-2.18v-4.56
		H9.92c-0.12,1.19-0.44,2.33-0.96,3.4c-0.7,1.34-1.71,2.39-3.02,3.18c-0.23,0.2-0.55,0.3-0.95,0.3c-0.49,0-0.82-0.12-1-0.37
		c-0.26-0.25-0.39-0.5-0.39-0.77c0-0.32,0.11-0.59,0.34-0.83c1.25-0.74,2.17-1.58,2.77-2.52c0.36-0.61,0.6-1.4,0.7-2.39h-2.9
		c-0.39,0-0.67-0.09-0.86-0.26c-0.19-0.16-0.28-0.45-0.28-0.86c0-0.43,0.1-0.72,0.28-0.88c0.18-0.16,0.46-0.25,0.86-0.25h6.04v-2.47
		H6.75c-0.29,0.58-0.59,1.08-0.9,1.47c-0.17,0.29-0.49,0.44-0.93,0.44c-0.31,0-0.63-0.14-0.98-0.42c-0.22-0.2-0.34-0.48-0.34-0.86
		c0-0.07,0.05-0.21,0.14-0.4c0.42-0.56,0.79-1.23,1.1-2c0.31-0.7,0.56-1.37,0.77-2.02C5.74,71.97,6.02,71.76,6.47,71.73L6.47,71.73z
		 M24.21,71.96h5.89c0.05,0,0.1,0,0.16,0c0.06-0.08,0.13-0.17,0.23-0.26c0.15-0.12,0.35-0.17,0.6-0.17c0.21,0,0.4,0.07,0.56,0.21
		c0.53,0.52,1.07,0.99,1.63,1.44c0.54-0.38,1.05-0.82,1.53-1.3c0.09-0.12,0.18-0.21,0.26-0.28c0.16-0.16,0.33-0.25,0.51-0.26
		c0.21,0,0.39,0.06,0.54,0.18c0.25,0.16,0.37,0.4,0.37,0.72c0,0.17-0.05,0.33-0.14,0.51c-0.39,0.55-0.9,1.07-1.54,1.56
		c0.39,0.25,0.77,0.48,1.14,0.7c0.57-0.43,1.12-0.9,1.63-1.4c0.12-0.12,0.22-0.22,0.31-0.31c0.14-0.18,0.31-0.27,0.49-0.28
		c0.21,0,0.39,0.06,0.53,0.19c0.26,0.16,0.39,0.4,0.39,0.72c0,0.17-0.05,0.34-0.14,0.51c-0.36,0.52-0.83,1.01-1.4,1.48
		c0.47,0.2,0.94,0.39,1.4,0.56c0.31,0.12,0.47,0.35,0.47,0.7c0,0.28-0.09,0.52-0.26,0.72c-0.13,0.17-0.3,0.29-0.53,0.35
		c0.05,0.02,0.08,0.05,0.11,0.07c0.19,0.15,0.28,0.38,0.28,0.69c0,0.63-0.14,1.12-0.42,1.47c-0.27,0.33-0.69,0.49-1.26,0.49h-1.56
		c-0.88,0-1.31-0.28-1.31-0.84V78.9c0-0.19-0.12-0.28-0.37-0.28h-0.9c-0.19,0-0.28,0.09-0.28,0.28c-0.02,0.49-0.09,0.92-0.21,1.28
		c-0.13,0.37-0.27,0.65-0.42,0.83c-0.12,0.1-0.23,0.19-0.35,0.26h4.7c0.63,0,1.05,0.12,1.26,0.35c0.33,0.29,0.49,0.69,0.49,1.19
		c0,0.47-0.36,1.01-1.09,1.63c-0.33,0.28-0.66,0.54-1,0.79c0.63,0.25,1.4,0.49,2.3,0.74c0.37,0.12,0.56,0.37,0.56,0.77
		c0,0.34-0.06,0.58-0.17,0.72c-0.14,0.28-0.41,0.42-0.81,0.42c-0.14,0-0.35-0.03-0.63-0.09c-0.88-0.2-1.95-0.63-3.21-1.28
		c-0.4,0.22-0.8,0.43-1.21,0.62c-1.09,0.48-1.81,0.73-2.18,0.75c-0.34,0-0.6-0.09-0.79-0.28c-0.17-0.2-0.26-0.39-0.26-0.56
		c0-0.3,0.12-0.56,0.35-0.77c0.76-0.31,1.46-0.63,2.11-0.95c-0.75-0.5-1.26-0.93-1.55-1.3c-0.14-0.21-0.21-0.42-0.21-0.63
		c0-0.2,0.07-0.41,0.21-0.63c-0.27-0.1-0.42-0.34-0.44-0.72c0.02-0.36,0.16-0.6,0.42-0.7c-0.07-0.04-0.13-0.08-0.19-0.14
		c-0.2-0.19-0.3-0.42-0.3-0.68c0-0.07,0.03-0.15,0.09-0.23c0.22-0.3,0.37-0.59,0.46-0.86c0.07-0.28,0.1-0.67,0.1-1.17
		c0.02-0.84,0.47-1.26,1.33-1.26h2.65c0.02,0,0.05,0,0.07,0c-1.39-0.82-2.58-1.69-3.56-2.61c-0.2,0.3-0.49,0.62-0.88,0.95
		c-0.87,0.77-1.78,1.45-2.74,2.04h1c0.76,0,1.14,0.34,1.14,1.04v2.17c0,0.76-0.36,1.14-1.07,1.14h-3.16c-0.12,0-0.18,0.07-0.19,0.23
		c-0.04,0.18-0.07,0.4-0.07,0.69c0,0.09,0.09,0.14,0.26,0.14h2.82c0.94,0,1.4,0.37,1.4,1.12c0,1.55-0.26,2.63-0.79,3.23
		c-0.48,0.51-1.37,0.77-2.66,0.77c-0.97,0-1.76-0.14-2.37-0.44c-0.26-0.06-0.46-0.17-0.6-0.33c-0.12-0.15-0.17-0.34-0.17-0.56
		c0-0.28,0.07-0.51,0.23-0.7c0.11-0.14,0.29-0.21,0.54-0.21c0.17,0,0.47,0.06,0.88,0.18c0.76,0.16,1.3,0.25,1.63,0.25
		c0.49,0,0.8-0.1,0.91-0.31c0.15-0.18,0.23-0.56,0.23-1.16c0-0.1-0.12-0.16-0.37-0.16h-2.79c-0.94,0-1.4-0.3-1.4-0.9
		c0-0.61,0.09-1.4,0.26-2.37c0.1-0.77,0.46-1.16,1.05-1.16h3.11c0.14,0,0.21-0.07,0.21-0.21v-0.7c0-0.05-0.07-0.07-0.21-0.07h-3.25
		c-0.06,0-0.12-0.01-0.17-0.02c-0.18,0.06-0.33,0.09-0.45,0.09c-0.34,0-0.62-0.09-0.83-0.28c-0.19-0.22-0.28-0.43-0.28-0.61
		c0-0.33,0.11-0.61,0.34-0.84c0.93-0.37,1.79-0.75,2.58-1.14c-0.56-0.47-1.08-0.88-1.54-1.23c-0.08-0.05-0.14-0.1-0.17-0.16
		c-0.1-0.1-0.16-0.25-0.16-0.42c0-0.17,0.1-0.36,0.3-0.56c0.04-0.02,0.09-0.05,0.12-0.09h-0.12c-0.54-0.02-0.82-0.32-0.84-0.9
		C23.39,72.28,23.67,71.98,24.21,71.96L24.21,71.96z M36.53,77.71c0.06,0.16,0.09,0.34,0.09,0.54v0.98c0,0.1,0.05,0.16,0.14,0.16
		c0.47,0,0.7-0.08,0.7-0.23c0.06-0.26,0.11-0.51,0.16-0.77c0.04-0.11,0.1-0.18,0.18-0.23c-0.07-0.02-0.14-0.04-0.21-0.07
		C37.24,78.02,36.89,77.89,36.53,77.71L36.53,77.71z M25.25,73.76c0.97,0.6,1.69,1.12,2.16,1.58c0.31-0.18,0.58-0.36,0.82-0.54
		c0.63-0.39,0.95-0.68,0.95-0.89c0-0.1-0.07-0.14-0.21-0.14H25.25L25.25,73.76z M32.16,82.82c0.87,0.6,1.62,1.08,2.26,1.45
		c0.25-0.14,0.47-0.28,0.68-0.44c0.59-0.39,0.88-0.68,0.88-0.88c0-0.09-0.04-0.14-0.14-0.14H32.16L32.16,82.82z M45.08,79.75h11.67
		c0.94,0,1.4,0.47,1.4,1.4v2.74c0,0.65-0.23,1.07-0.68,1.26c0.23,0.04,0.44,0.12,0.61,0.26c0.26,0.18,0.4,0.48,0.42,0.93
		c0,0.44-0.12,0.77-0.37,0.98c-0.35,0.31-0.84,0.47-1.46,0.49h-5.69c-0.85,0-1.28-0.44-1.28-1.33v-1.21h-4.63
		c-0.94,0-1.4-0.46-1.4-1.38v-2.74C43.68,80.21,44.14,79.75,45.08,79.75L45.08,79.75z M51.96,85.27v0.37c0,0.33,0.17,0.49,0.51,0.49
		h3.44c0.06,0,0.15-0.01,0.28-0.04c0.13-0.06,0.19-0.15,0.19-0.26c0.04-0.21,0.14-0.38,0.32-0.51c0.01-0.01,0.02-0.03,0.03-0.05
		H51.96L51.96,85.27z M55.61,83.82c0.2,0,0.3-0.09,0.3-0.28v-0.42h-3.95v0.7H55.61L55.61,83.82z M49.71,83.82v-0.7h-3.79v0.42
		c0,0.19,0.1,0.28,0.3,0.28H49.71L49.71,83.82z M45.92,81.92h3.79v-0.7h-3.49c-0.2,0-0.3,0.09-0.3,0.26V81.92L45.92,81.92z
		 M51.96,81.22v0.7h3.95v-0.44c0-0.18-0.1-0.26-0.3-0.26H51.96L51.96,81.22z M44.24,71.96h13.42c0.33,0,0.57,0.06,0.72,0.18
		c0.13,0.1,0.19,0.33,0.19,0.67c0,0.27-0.06,0.48-0.18,0.62c-0.15,0.2-0.4,0.3-0.74,0.3h-5.55v0.63h5.11c1.09,0,1.63,0.42,1.63,1.26
		v1.95c0,0.41-0.11,0.69-0.33,0.84c-0.19,0.19-0.46,0.28-0.81,0.3c0,0.13-0.03,0.23-0.09,0.3c-0.09,0.12-0.25,0.17-0.47,0.17h-3.91
		c-0.19,0-0.33-0.04-0.42-0.12c-0.1-0.08-0.16-0.22-0.16-0.42c0-0.22,0.05-0.37,0.16-0.44c0.08-0.08,0.22-0.12,0.42-0.12h3.25
		c-0.02-0.09-0.03-0.19-0.03-0.3v-0.28h-3.16c-0.18,0-0.31-0.04-0.4-0.12c-0.1-0.07-0.16-0.22-0.16-0.44c0-0.21,0.05-0.35,0.16-0.42
		c0.08-0.08,0.22-0.12,0.4-0.12h3.16v-0.37c0-0.13-0.11-0.2-0.34-0.2h-4v2.51c0,0.43-0.1,0.73-0.31,0.9
		c-0.18,0.21-0.47,0.31-0.88,0.31c-0.4,0-0.7-0.1-0.9-0.31c-0.21-0.18-0.31-0.47-0.31-0.9v-2.51h-4.05c-0.19,0-0.28,0.07-0.28,0.2
		v0.37h3.16c0.2,0,0.34,0.04,0.42,0.12c0.09,0.07,0.14,0.21,0.14,0.42c0,0.19-0.04,0.32-0.12,0.39c-0.1,0.12-0.24,0.18-0.44,0.18
		h-3.16v0.51c0,0.02,0,0.04,0,0.07h3.23c0.2,0,0.34,0.04,0.42,0.12c0.09,0.07,0.14,0.22,0.14,0.44c0,0.16-0.04,0.28-0.1,0.37
		c-0.11,0.12-0.26,0.17-0.46,0.17h-3.79c-0.2,0-0.34-0.04-0.44-0.12c-0.04-0.03-0.07-0.09-0.09-0.16c-0.04,0.01-0.08,0.02-0.11,0.02
		c-0.41,0-0.71-0.09-0.89-0.26c-0.21-0.21-0.31-0.5-0.31-0.88v-2.16c0-0.84,0.54-1.26,1.63-1.26h5.11v-0.63h-5.47
		c-0.31,0-0.53-0.07-0.69-0.21c-0.14-0.14-0.21-0.37-0.21-0.7c0-0.33,0.07-0.55,0.21-0.67C43.69,72.02,43.92,71.96,44.24,71.96
		L44.24,71.96z M70.62,71.4c0.42,0,0.72,0.07,0.89,0.23c0.25,0.21,0.37,0.48,0.37,0.81v5.49h5.69c0.43,0,0.74,0.08,0.93,0.25
		c0.18,0.14,0.26,0.43,0.26,0.86c0,0.37-0.07,0.65-0.23,0.82c-0.21,0.26-0.53,0.39-0.96,0.39h-4v4.77c0,0.17,0.09,0.26,0.26,0.26
		h1.54c0.08,0,0.21-0.09,0.39-0.28c0.18-0.26,0.26-0.81,0.26-1.67c0.02-0.28,0.13-0.49,0.34-0.63c0.16-0.14,0.37-0.21,0.63-0.21
		c0.43,0,0.78,0.1,1.05,0.3c0.32,0.22,0.48,0.59,0.49,1.11c0,1.14-0.14,2-0.42,2.56c-0.42,0.77-1,1.18-1.74,1.23h-3.25
		c-1.3,0-1.95-0.72-1.95-2.17v-5.26h-2.11c-0.12,1.31-0.44,2.57-0.98,3.77c-0.72,1.46-1.77,2.63-3.12,3.49
		c-0.23,0.21-0.56,0.31-0.96,0.31c-0.43,0-0.73-0.1-0.9-0.31c-0.25-0.22-0.37-0.45-0.37-0.67c0-0.33,0.1-0.61,0.3-0.86
		c1.31-0.84,2.28-1.81,2.91-2.9c0.4-0.71,0.65-1.66,0.75-2.84h-2.9c-0.4,0-0.7-0.1-0.91-0.3c-0.2-0.16-0.3-0.47-0.3-0.91
		c0-0.42,0.1-0.71,0.3-0.86c0.19-0.16,0.49-0.25,0.91-0.25h5.6v-5.49c0-0.28,0.12-0.55,0.35-0.82C69.93,71.46,70.22,71.4,70.62,71.4
		L70.62,71.4z M65.05,72.22c-0.35,0-0.68,0.1-0.98,0.3c-0.31,0.23-0.47,0.51-0.47,0.84c0,0.1,0.06,0.24,0.19,0.4
		c0.56,0.84,1.08,1.76,1.56,2.76c0.16,0.47,0.53,0.7,1.1,0.7c0.34-0.01,0.66-0.14,0.96-0.39c0.25-0.19,0.37-0.48,0.37-0.88
		c-0.01-0.14-0.07-0.33-0.19-0.58c-0.53-1.11-1.07-1.99-1.61-2.65C65.81,72.39,65.5,72.22,65.05,72.22L65.05,72.22z M75.67,72.1
		c-0.29,0-0.53,0.13-0.7,0.4c-0.39,0.95-0.85,1.88-1.39,2.81c-0.1,0.28-0.16,0.51-0.16,0.7c0,0.27,0.1,0.5,0.3,0.7
		c0.31,0.34,0.68,0.51,1.1,0.51c0.27-0.02,0.47-0.12,0.61-0.3c0.47-0.65,0.97-1.54,1.51-2.67c0.17-0.36,0.26-0.66,0.26-0.9
		c0-0.43-0.19-0.77-0.58-1C76.34,72.18,76.02,72.1,75.67,72.1L75.67,72.1z M84.9,72.36h3.02c1.03,0,1.54,0.52,1.54,1.54v11.88
		c0,0.78-0.1,1.31-0.32,1.56c-0.26,0.31-0.67,0.47-1.23,0.47c-0.69,0-1.19-0.11-1.49-0.33c-0.28-0.19-0.42-0.52-0.42-1
		c0-0.47,0.09-0.81,0.26-1.04c0.12-0.16,0.29-0.25,0.51-0.25h0.51c0.05,0,0.07-0.09,0.07-0.26v-2.39h-1.93
		c-0.09,1.93-0.39,3.4-0.9,4.42c-0.15,0.52-0.52,0.77-1.1,0.77c-0.7-0.04-1.08-0.34-1.14-0.91c0-0.27,0.12-0.63,0.37-1.07
		c0.47-1.38,0.7-2.92,0.7-4.62v-7.11C83.36,72.92,83.87,72.36,84.9,72.36L84.9,72.36z M85.45,80.45h1.91v-1.82h-1.91V80.45
		L85.45,80.45z M85.45,76.52h1.91V74.9c0-0.2-0.07-0.3-0.21-0.3h-1.47c-0.15,0-0.23,0.07-0.23,0.23V76.52L85.45,76.52z M91.29,79.03
		h4.98c0.66,0,1.1,0.12,1.34,0.35c0.33,0.31,0.49,0.74,0.49,1.26c0,0.66-0.33,1.43-0.98,2.3c-0.43,0.56-0.87,1.08-1.32,1.56
		c0.74,0.49,1.5,0.96,2.3,1.4c0.28,0.24,0.42,0.49,0.42,0.77c0,0.33-0.12,0.59-0.35,0.77c-0.17,0.25-0.48,0.37-0.91,0.37
		c-0.25,0-0.56-0.07-0.91-0.21c-0.29-0.12-0.6-0.28-0.91-0.47c-0.48-0.31-0.94-0.63-1.39-0.97c-0.26,0.2-0.52,0.39-0.77,0.58
		c-0.98,0.68-1.64,1.03-1.98,1.07c-0.44,0-0.79-0.13-1.05-0.4c-0.25-0.27-0.37-0.54-0.37-0.81c0.01-0.36,0.18-0.69,0.51-0.97
		c0.62-0.37,1.2-0.75,1.74-1.12c-0.26-0.25-0.52-0.5-0.77-0.77c-0.47-0.52-0.7-0.96-0.7-1.34c0-0.29,0.13-0.52,0.39-0.68
		c0.19-0.16,0.42-0.25,0.69-0.25c0.19,0,0.4,0.1,0.63,0.3c0.5,0.47,1.03,0.92,1.58,1.35c0.22-0.21,0.43-0.41,0.63-0.6
		c0.54-0.5,0.81-0.88,0.81-1.12c0-0.13-0.08-0.19-0.23-0.19h-3.84c-0.63-0.05-0.96-0.42-0.98-1.12
		C90.33,79.42,90.66,79.06,91.29,79.03L91.29,79.03z M94.8,72.1c1.03,0,1.54,0.44,1.54,1.33v2.65c0,0.14,0.05,0.21,0.14,0.21
		c0.19,0,0.28-0.09,0.28-0.26c0.01-0.35,0.04-0.68,0.07-0.99c0.09-0.29,0.32-0.44,0.68-0.44c0.4,0,0.7,0.09,0.91,0.28
		c0.2,0.16,0.3,0.4,0.3,0.72c0,0.91-0.16,1.61-0.48,2.11c-0.3,0.45-0.78,0.69-1.42,0.69h-1.2c-0.93,0-1.4-0.37-1.4-1.11v-2.82
		c0-0.22-0.12-0.33-0.35-0.33h-0.63c-0.25,0-0.37,0.11-0.37,0.33c-0.02,0.89-0.1,1.64-0.25,2.26c-0.17,0.68-0.37,1.17-0.6,1.47
		c-0.35,0.37-0.69,0.56-1.03,0.56c-0.29,0-0.55-0.11-0.77-0.34c-0.2-0.2-0.3-0.44-0.3-0.74c0-0.12,0.04-0.26,0.12-0.42
		c0.28-0.58,0.48-1.12,0.6-1.63c0.08-0.51,0.12-1.25,0.12-2.21c0.05-0.89,0.54-1.33,1.48-1.33H94.8L94.8,72.1z M112.39,71.96h2.31
		c0.81,0,1.42,0.47,1.82,1.4c0.36,0.84,0.95,2.03,1.75,3.56c0.19,0.31,0.28,0.61,0.28,0.93c0,0.26-0.13,0.5-0.39,0.72
		c-0.2,0.22-0.5,0.33-0.89,0.33c-0.09,0-0.18-0.01-0.26-0.03c0.08,0.27,0.12,0.6,0.12,1c0,1.9-0.01,3.35-0.05,4.37
		c-0.06,1.28-0.39,2.24-0.98,2.9c-0.43,0.41-0.88,0.61-1.34,0.61c-1.2-0.04-2.17-0.22-2.89-0.56c-0.33-0.21-0.52-0.61-0.56-1.21
		c0-0.27,0.11-0.56,0.33-0.86c0.13-0.16,0.31-0.25,0.53-0.25c0.07,0,0.19,0.01,0.37,0.03c0.37,0.12,0.81,0.22,1.32,0.3
		c0.48,0,0.74-0.31,0.79-0.91c0.08-0.88,0.12-2.2,0.12-3.98c0-0.2-0.04-0.3-0.14-0.3h-2.23c-0.08,1.33-0.34,2.61-0.79,3.82
		c-0.55,1.44-1.35,2.59-2.4,3.46c-0.2,0.21-0.45,0.32-0.75,0.32c-0.49,0-0.83-0.12-1.02-0.35c-0.26-0.25-0.39-0.5-0.39-0.77
		c0-0.34,0.11-0.62,0.34-0.84c0.99-0.83,1.73-1.77,2.21-2.82c0.31-0.69,0.51-1.63,0.58-2.81h-1.31c-0.51-0.04-0.81-0.34-0.88-0.91
		c-0.01,0-0.02,0-0.02,0c-0.31,0-0.63-0.12-0.93-0.37c-0.23-0.2-0.35-0.47-0.35-0.81c0.01-0.09,0.06-0.24,0.14-0.44
		c0.5-0.5,0.95-1.1,1.33-1.81c0.37-0.64,0.67-1.26,0.91-1.84c0.1-0.39,0.37-0.6,0.79-0.63c0.34,0,0.66,0.08,0.95,0.25
		c0.28,0.18,0.43,0.4,0.44,0.69c0,0.26-0.09,0.61-0.26,1.07c-0.46,1.07-0.94,1.95-1.44,2.65h5.65c0.33,0,0.61,0.04,0.86,0.1
		c-0.55-1.15-1.05-2.32-1.51-3.53c-0.08-0.21-0.18-0.35-0.3-0.42c-0.14-0.02-0.27-0.04-0.39-0.04h-1.47c-0.35,0-0.59-0.09-0.72-0.26
		c-0.17-0.17-0.26-0.43-0.26-0.77c0-0.33,0.1-0.57,0.3-0.74C111.83,72.04,112.06,71.96,112.39,71.96L112.39,71.96z M105.72,71.59
		c-0.43,0-0.71,0.26-0.84,0.77c-0.68,2.48-1.59,4.59-2.72,6.33c-0.15,0.28-0.23,0.54-0.23,0.77c0,0.35,0.12,0.63,0.35,0.84
		c0.25,0.22,0.6,0.34,1.05,0.34c0.35,0,0.61-0.08,0.77-0.25v6.21c0,0.44,0.1,0.75,0.31,0.91c0.2,0.2,0.49,0.3,0.86,0.3
		c0.41,0,0.7-0.1,0.87-0.3c0.22-0.17,0.34-0.48,0.34-0.91V75.73c0.26-0.72,0.47-1.46,0.65-2.21c0.08-0.23,0.12-0.48,0.12-0.72
		c0-0.48-0.16-0.78-0.49-0.89C106.5,71.69,106.15,71.59,105.72,71.59L105.72,71.59z M122.95,73.13h3.81
		c0.14-0.4,0.27-0.81,0.39-1.25c0.13-0.35,0.34-0.54,0.63-0.56c0.57,0,0.95,0.07,1.12,0.21c0.28,0.15,0.42,0.45,0.42,0.89
		c0,0.13-0.03,0.32-0.09,0.56c-0.01,0.06-0.02,0.1-0.04,0.14h7.77c0.42,0,0.72,0.09,0.89,0.26c0.16,0.14,0.25,0.43,0.25,0.88
		c0,0.34-0.07,0.6-0.19,0.77c-0.21,0.22-0.52,0.34-0.95,0.34h-8.6c-0.2,0.42-0.4,0.82-0.6,1.21h7.02c1.18,0,1.77,0.65,1.77,1.95
		v7.37c0,0.74-0.18,1.21-0.55,1.42c-0.41,0.28-1,0.42-1.77,0.42c-0.87-0.02-1.74-0.15-2.61-0.37c-0.47-0.19-0.7-0.51-0.7-0.97
		c0.05-0.78,0.36-1.21,0.93-1.28c0.14,0,0.28,0.01,0.4,0.03c0.46,0.18,0.99,0.26,1.61,0.26c0.2,0,0.3-0.21,0.3-0.63v-0.63h-7.23
		v2.44c0,0.44-0.1,0.74-0.31,0.9c-0.2,0.16-0.5,0.25-0.9,0.25c-0.43,0-0.74-0.1-0.91-0.3c-0.17-0.21-0.26-0.49-0.26-0.84v-6.18
		c-0.31,0.27-0.65,0.52-1,0.75c-0.19,0.15-0.37,0.23-0.54,0.23c-0.49,0-0.85-0.16-1.09-0.49c-0.16-0.25-0.25-0.55-0.25-0.91
		c0-0.37,0.13-0.66,0.4-0.84c1.33-0.88,2.34-1.84,3.04-2.88c0.2-0.28,0.39-0.58,0.58-0.91h-2.75c-0.37,0-0.66-0.08-0.86-0.25
		c-0.19-0.15-0.28-0.44-0.28-0.86c0-0.43,0.1-0.73,0.28-0.88C122.27,73.22,122.56,73.13,122.95,73.13L122.95,73.13z M126.95,82.48
		h7.23v-1.14h-7.23V82.48L126.95,82.48z M126.95,79.67h7.23V78.9c0-0.25-0.1-0.37-0.3-0.37h-6.51c-0.28,0-0.42,0.12-0.42,0.37V79.67
		L126.95,79.67z M150.16,72.22h5.33c1.08,0,1.61,0.54,1.61,1.61v5.56c0,0.88-0.59,1.31-1.77,1.31h-0.86
		c0.25,0.61,0.51,1.18,0.79,1.7c0.47-0.33,0.87-0.66,1.21-1c0.23-0.17,0.44-0.26,0.63-0.26c0.34,0,0.6,0.13,0.79,0.37
		c0.16,0.17,0.25,0.45,0.25,0.82c0,0.23-0.11,0.44-0.34,0.61c-0.37,0.41-0.85,0.82-1.44,1.23c0.37,0.54,0.78,1.05,1.21,1.53
		c0.2,0.27,0.3,0.53,0.3,0.77c0,0.3-0.12,0.57-0.35,0.81c-0.19,0.26-0.49,0.39-0.91,0.39c-0.43,0-0.78-0.16-1.05-0.49
		c-0.75-0.71-1.51-1.74-2.3-3.07c-0.49-1.01-0.88-1.98-1.18-2.93c-0.04-0.15-0.08-0.31-0.1-0.47h-1.14v4.1
		c0.47-0.09,0.94-0.2,1.4-0.31c0.4,0,0.65,0.1,0.75,0.3c0.2,0.23,0.3,0.49,0.31,0.77c0,0.56-0.16,0.89-0.49,0.98
		c-0.42,0.19-1.64,0.51-3.66,0.96c-0.51,0.15-0.96,0.23-1.34,0.23c-0.27,0-0.48-0.12-0.65-0.37c-0.18-0.22-0.26-0.48-0.26-0.77
		c0-0.42,0.17-0.74,0.51-0.97c0.35-0.09,0.7-0.18,1.05-0.26c-0.01-0.05-0.02-0.11-0.02-0.18V73.83
		C148.45,72.76,149.02,72.22,150.16,72.22L150.16,72.22z M150.84,78.47c0,0.2,0.12,0.3,0.37,0.3h3.14c0.25,0,0.37-0.1,0.37-0.3
		v-1.04h-3.88V78.47L150.84,78.47z M150.84,75.45h3.88v-0.91c0-0.18-0.12-0.26-0.37-0.26h-3.14c-0.25,0-0.37,0.09-0.37,0.26V75.45
		L150.84,75.45z M146.72,72.22H143c-0.7,0-1.05,0.43-1.05,1.28v13.33c0.04,0.62,0.43,0.95,1.18,0.98c0.72-0.04,1.11-0.36,1.14-0.98
		v-1.65c0.36,0.12,0.75,0.18,1.17,0.18c0.83,0,1.45-0.29,1.84-0.88c0.36-0.45,0.54-1.19,0.54-2.23c0-1.19-0.26-2.46-0.77-3.79
		c0.67-1.96,1-3.55,1-4.75C148.05,72.72,147.61,72.22,146.72,72.22L146.72,72.22z M144.26,82.8v-8.33h1.25
		c0.1,0,0.16,0.05,0.16,0.14c0,1.07-0.28,2.22-0.84,3.42c-0.1,0.16-0.16,0.36-0.16,0.6c0,0.19,0.05,0.39,0.14,0.61
		c0.42,0.82,0.63,1.54,0.63,2.17c0,0.45-0.04,0.77-0.12,0.98c-0.13,0.28-0.37,0.42-0.72,0.42C144.5,82.82,144.39,82.81,144.26,82.8z
		"/>
	<path style="&st1;" d="M166.04,72.8c0.23,0,0.47,0.1,0.7,0.28c0.34,0.21,0.51,0.56,0.51,1.05c0,0.15-0.03,0.3-0.09,0.44
		c-0.18,0.54-0.48,1.17-0.93,1.9c-0.99,1.63-1.83,2.74-2.51,3.33c-0.19,0.2-0.49,0.3-0.91,0.3c-0.35,0-0.66-0.17-0.93-0.51
		c-0.22-0.22-0.33-0.5-0.33-0.82c0-0.28,0.12-0.52,0.37-0.7c0.79-0.92,1.44-1.78,1.95-2.58c0.48-0.68,0.88-1.42,1.19-2.21
		C165.23,72.96,165.56,72.8,166.04,72.8L166.04,72.8z M168.22,77.15c-0.46,0-0.8,0.35-1.03,1.05c-0.48,1.59-1.47,3.62-2.97,6.09
		c-0.23,0-0.46,0-0.68,0c-0.5,0.02-0.84,0.12-1.02,0.3c-0.22,0.2-0.33,0.5-0.33,0.91c0.01,0.4,0.13,0.71,0.35,0.93
		c0.2,0.16,0.51,0.25,0.93,0.25c2.57,0,4.95-0.14,7.12-0.42c1.25-0.15,2.38-0.33,3.39-0.53c0.27,0.43,0.51,0.85,0.72,1.25
		c0.16,0.36,0.45,0.54,0.84,0.54c0.52,0,0.88-0.12,1.05-0.37c0.23-0.13,0.35-0.42,0.35-0.88c0-0.41-0.13-0.84-0.4-1.3
		c-1.11-2.05-2.22-3.58-3.32-4.6c-0.19-0.23-0.44-0.36-0.77-0.37c-0.51,0-0.88,0.07-1.09,0.21c-0.26,0.19-0.39,0.47-0.39,0.86
		c0,0.22,0.09,0.43,0.26,0.63c0.5,0.67,0.97,1.31,1.4,1.95c-1.57,0.28-3.4,0.47-5.51,0.56c1.28-2.01,2.15-3.75,2.63-5.21
		c0.1-0.26,0.16-0.48,0.16-0.69c0-0.45-0.2-0.77-0.58-0.95C169.04,77.23,168.66,77.15,168.22,77.15L168.22,77.15z M168.99,72.36
		h3.39c0.84,0,1.48,0.33,1.91,1c0.65,1.13,1.63,2.44,2.91,3.93c0.34,0.26,0.51,0.58,0.51,0.97c0,0.43-0.11,0.73-0.33,0.9
		c-0.21,0.35-0.59,0.52-1.14,0.52c-0.37,0-0.81-0.28-1.31-0.84c-0.83-0.88-1.73-2.14-2.69-3.79c-0.14-0.2-0.37-0.3-0.7-0.3h-2.55
		c-0.75-0.04-1.14-0.43-1.17-1.18C167.85,72.8,168.24,72.4,168.99,72.36L168.99,72.36z M183.16,72.36h11.63
		c1.32,0,1.98,0.66,1.98,1.98v10.93c0,0.96-0.23,1.57-0.69,1.83c-0.42,0.43-1.13,0.65-2.14,0.65c-0.95-0.01-1.99-0.15-3.14-0.42
		c-0.27-0.1-0.48-0.27-0.65-0.49c-0.13-0.22-0.19-0.51-0.19-0.86c0.02-0.33,0.11-0.6,0.25-0.81c0.1-0.12,0.21-0.2,0.35-0.25
		c-0.06,0.01-0.12,0.02-0.19,0.02h-6.58c-0.89,0-1.33-0.45-1.33-1.35v-3.42c0-0.89,0.44-1.33,1.33-1.33h6.58
		c0.89,0,1.33,0.44,1.33,1.33v3.42c0,0.7-0.26,1.13-0.79,1.28c0.2,0,0.39,0.03,0.56,0.09c0.89,0.16,1.67,0.25,2.35,0.25
		c0.37,0,0.56-0.13,0.56-0.4v-9.49c0-0.52-0.21-0.77-0.63-0.77h-10.6c-0.68-0.04-1.04-0.4-1.07-1.11
		C182.12,72.75,182.48,72.4,183.16,72.36L183.16,72.36z M182.72,75.67c-0.33,0-0.57,0.07-0.74,0.21c-0.15,0.13-0.23,0.39-0.23,0.77
		c0,0.37,0.08,0.62,0.23,0.75c0.18,0.14,0.42,0.21,0.74,0.21h8.91c0.37,0,0.64-0.1,0.81-0.3c0.12-0.14,0.17-0.36,0.17-0.67
		c0-0.38-0.07-0.64-0.21-0.77c-0.15-0.14-0.41-0.21-0.77-0.21H182.72L182.72,75.67z M189.05,82.96c0.22,0,0.33-0.11,0.33-0.33v-1.48
		c0-0.25-0.11-0.37-0.33-0.37h-3.95c-0.22,0-0.33,0.12-0.33,0.37v1.48c0,0.22,0.11,0.33,0.33,0.33H189.05z"/>
</g>
<path style="&st1;" d="M5.82,101.85c-0.29,0-0.55-0.05-0.8-0.14c-0.29-0.12-0.5-0.3-0.63-0.54c0,0.18-0.01,0.36-0.02,0.55H3.07
	c0.1-0.78,0.15-1.26,0.15-1.45V94.2h1.25v2.48c0.4-0.24,0.84-0.36,1.33-0.36c0.76,0,1.35,0.28,1.78,0.85
	c0.39,0.52,0.58,1.17,0.58,1.95c0,0.78-0.19,1.41-0.57,1.9C7.16,101.58,6.57,101.85,5.82,101.85L5.82,101.85z M5.68,97.5
	c-0.41,0-0.72,0.16-0.94,0.49c-0.19,0.28-0.28,0.63-0.28,1.06c0,1.08,0.44,1.62,1.32,1.62c0.36,0,0.63-0.18,0.83-0.54
	c0.15-0.29,0.23-0.64,0.23-1.04c0-0.41-0.09-0.76-0.27-1.06C6.37,97.68,6.07,97.5,5.68,97.5L5.68,97.5z M11.34,101.84
	c-0.81,0-1.45-0.26-1.91-0.79c-0.44-0.51-0.67-1.16-0.67-1.97c0-0.77,0.22-1.42,0.66-1.95c0.47-0.55,1.08-0.83,1.84-0.83
	c0.86,0,1.51,0.31,1.95,0.92c0.41,0.54,0.6,1.26,0.58,2.13h-3.72c0.15,0.88,0.6,1.32,1.35,1.32c0.56,0,0.91-0.27,1.07-0.8h1.31
	c-0.13,0.62-0.41,1.1-0.85,1.44C12.48,101.67,11.95,101.84,11.34,101.84L11.34,101.84z M11.26,97.47c-0.51,0-0.88,0.25-1.1,0.74
	h2.19c-0.08-0.23-0.22-0.41-0.43-0.55C11.73,97.54,11.5,97.47,11.26,97.47L11.26,97.47z M16.47,101.84c-1.4,0-2.11-0.68-2.14-2.05
	h1.27c0.01,0.35,0.1,0.58,0.25,0.71c0.14,0.11,0.39,0.16,0.75,0.16c0.22,0,0.41-0.04,0.58-0.13c0.21-0.11,0.32-0.27,0.32-0.47
	c0-0.19-0.19-0.33-0.57-0.43c-0.15-0.03-0.42-0.1-0.8-0.2c-1.09-0.29-1.64-0.77-1.64-1.47c0-0.57,0.21-0.99,0.64-1.29
	c0.37-0.25,0.84-0.37,1.44-0.37c1.36,0,2.06,0.64,2.08,1.94h-1.27c-0.04-0.5-0.33-0.75-0.86-0.75c-0.49,0-0.74,0.14-0.74,0.43
	c0,0.11,0.23,0.23,0.68,0.35c0.15,0.03,0.43,0.1,0.83,0.19c1,0.28,1.5,0.79,1.5,1.52c0,0.65-0.24,1.13-0.72,1.45
	C17.68,101.7,17.14,101.84,16.47,101.84L16.47,101.84z M21.7,97.67v2.51c0,0.23,0.11,0.34,0.33,0.34h0.81v1.18h-0.92
	c-0.98,0-1.47-0.49-1.47-1.48v-2.55H19.3v-1.21h1.15v-0.98l1.25-0.61v1.59h1.24v1.21H21.7L21.7,97.67z M26.98,101.71V94.2h5.64v1.25
	h-4.34v1.78h4.21v1.25h-4.21v1.99h4.49v1.25H26.98L26.98,101.71z M38.1,100.91c-0.43,0.61-1.02,0.92-1.79,0.92
	c-0.49,0-0.94-0.13-1.36-0.39v1.64h-1.24v-5.23c0-0.15-0.05-0.63-0.14-1.43h1.28l0.04,0.47c0.3-0.4,0.76-0.6,1.39-0.6
	c0.76,0,1.36,0.31,1.79,0.92c0.37,0.53,0.55,1.15,0.55,1.87C38.63,99.8,38.45,100.41,38.1,100.91L38.1,100.91z M36.17,97.47
	c-0.41,0-0.72,0.16-0.94,0.47c-0.18,0.27-0.27,0.61-0.27,1.05c0,1.1,0.43,1.66,1.3,1.66c0.39,0,0.68-0.19,0.85-0.56
	c0.15-0.28,0.22-0.64,0.22-1.08c0-0.41-0.09-0.75-0.26-1.04C36.86,97.64,36.56,97.47,36.17,97.47L36.17,97.47z M40.71,101.71h-1.27
	v-5.25h1.27V101.71L40.71,101.71z M39.44,95.34v-1.29h1.27v1.29H39.44L39.44,95.34z M43.87,97.67v2.51c0,0.23,0.11,0.34,0.33,0.34
	H45v1.18h-0.92c-0.98,0-1.47-0.49-1.47-1.48v-2.55h-1.15v-1.21h1.15v-0.98l1.25-0.61v1.59h1.24v1.21H43.87L43.87,97.67z
	 M48.71,101.72v-0.41c-0.29,0.36-0.7,0.54-1.24,0.54c-0.54,0-0.99-0.16-1.37-0.49c-0.37-0.32-0.55-0.75-0.55-1.28
	c0-0.67,0.29-1.17,0.86-1.5c0.44-0.24,1.03-0.36,1.76-0.36h0.47c0-0.27-0.06-0.47-0.19-0.59c-0.13-0.11-0.33-0.16-0.61-0.16
	c-0.3,0-0.51,0.05-0.63,0.14c-0.12,0.09-0.2,0.29-0.23,0.61h-1.28c0.06-0.62,0.28-1.09,0.67-1.42c0.37-0.33,0.87-0.49,1.49-0.49
	c0.63,0,1.13,0.15,1.49,0.45c0.37,0.32,0.56,0.79,0.56,1.41v2.13c0,0.43,0.04,0.9,0.12,1.41H48.71L48.71,101.72z M48.2,99.38
	c-0.91,0-1.36,0.24-1.36,0.71c0,0.19,0.08,0.33,0.23,0.44c0.15,0.11,0.32,0.16,0.51,0.16c0.69,0,1.05-0.44,1.09-1.31H48.2
	L48.2,99.38z M55.15,101.71l-1.46-1.86l-1.48,1.86h-1.63l2.28-2.74l-2.08-2.5h1.63l1.28,1.58l1.27-1.58h1.61l-2.06,2.5l2.29,2.74
	H55.15L55.15,101.71z M60.08,103.09h-1.38l0.71-1.61l-2.12-5.02h1.42l1.39,3.49l1.44-3.49h1.37L60.08,103.09L60.08,103.09z
	 M72.81,101.71v-4.35l-1.75,4.35h-1.07l-1.74-4.35v4.35h-1.23V94.2h1.18l2.32,5.73l2.34-5.73h1.18v7.51H72.81L72.81,101.71z
	 M77.99,101.72v-0.41c-0.29,0.36-0.7,0.54-1.24,0.54c-0.54,0-0.99-0.16-1.37-0.49c-0.37-0.32-0.55-0.75-0.55-1.28
	c0-0.67,0.29-1.17,0.86-1.5c0.44-0.24,1.03-0.36,1.77-0.36h0.47c0-0.27-0.06-0.47-0.19-0.59c-0.13-0.11-0.33-0.16-0.61-0.16
	c-0.3,0-0.51,0.05-0.63,0.14c-0.12,0.09-0.2,0.29-0.23,0.61h-1.28c0.06-0.62,0.28-1.09,0.67-1.42c0.37-0.33,0.87-0.49,1.49-0.49
	c0.63,0,1.13,0.15,1.49,0.45c0.37,0.32,0.56,0.79,0.56,1.41v2.13c0,0.43,0.04,0.9,0.12,1.41H77.99L77.99,101.72z M77.47,99.38
	c-0.91,0-1.36,0.24-1.36,0.71c0,0.19,0.08,0.33,0.23,0.44c0.15,0.11,0.32,0.16,0.51,0.16c0.69,0,1.05-0.44,1.09-1.31H77.47
	L77.47,99.38z M83.44,101.71v-2.96c0-0.84-0.31-1.26-0.92-1.26c-0.66,0-0.99,0.38-0.99,1.13v3.09h-1.27v-3.88
	c0-0.21-0.05-0.67-0.15-1.4h1.31l0.03,0.42c0.25-0.36,0.65-0.54,1.21-0.54c0.67,0,1.18,0.2,1.53,0.6c0.33,0.39,0.5,0.91,0.5,1.58
	v3.22H83.44L83.44,101.71z M88.97,101.71l-0.03-0.41c-0.3,0.36-0.71,0.54-1.21,0.54c-0.67,0-1.18-0.2-1.54-0.6
	c-0.33-0.38-0.49-0.91-0.49-1.58v-3.2h1.27v3.38c0,0.55,0.3,0.83,0.89,0.83c0.33,0,0.58-0.11,0.77-0.34
	c0.17-0.2,0.26-0.46,0.26-0.79v-3.08h1.27v3.87c0,0.33,0.04,0.79,0.13,1.39H88.97L88.97,101.71z M93.57,95.39
	c-0.19,0-0.28,0.12-0.28,0.35v0.74h1.05v1.19h-1.05v4.05h-1.25v-4.05h-0.99v-1.19h0.99v-0.76c0-1.01,0.46-1.51,1.38-1.51h0.95v1.19
	H93.57L93.57,95.39z M98.09,101.72v-0.41c-0.29,0.36-0.7,0.54-1.24,0.54c-0.54,0-0.99-0.16-1.37-0.49
	c-0.37-0.32-0.55-0.75-0.55-1.28c0-0.67,0.29-1.17,0.86-1.5c0.44-0.24,1.03-0.36,1.76-0.36h0.47c0-0.27-0.06-0.47-0.19-0.59
	c-0.13-0.11-0.33-0.16-0.61-0.16c-0.3,0-0.51,0.05-0.63,0.14c-0.12,0.09-0.2,0.29-0.23,0.61h-1.28c0.06-0.62,0.28-1.09,0.67-1.42
	c0.37-0.33,0.87-0.49,1.49-0.49c0.63,0,1.13,0.15,1.49,0.45c0.37,0.32,0.56,0.79,0.56,1.41v2.13c0,0.43,0.04,0.9,0.12,1.41H98.09
	L98.09,101.72z M97.57,99.38c-0.91,0-1.36,0.24-1.36,0.71c0,0.19,0.08,0.33,0.23,0.44c0.15,0.11,0.32,0.16,0.51,0.16
	c0.69,0,1.05-0.44,1.09-1.31H97.57L97.57,99.38z M102.4,101.84c-0.76,0-1.37-0.28-1.81-0.84c-0.39-0.51-0.59-1.15-0.59-1.94
	c0-0.79,0.21-1.44,0.62-1.94c0.45-0.55,1.06-0.82,1.82-0.82c0.68,0,1.21,0.2,1.59,0.59c0.38,0.4,0.59,0.93,0.61,1.6h-1.27
	c-0.05-0.36-0.13-0.61-0.26-0.77c-0.15-0.15-0.4-0.23-0.77-0.23c-0.34,0-0.61,0.18-0.81,0.54c-0.15,0.3-0.23,0.63-0.23,1.01
	c0,0.38,0.08,0.72,0.23,1.03c0.2,0.38,0.47,0.57,0.81,0.57c0.38,0,0.64-0.08,0.78-0.24c0.11-0.15,0.19-0.41,0.23-0.79h1.3
	c-0.02,0.7-0.23,1.25-0.62,1.65C103.66,101.65,103.11,101.84,102.4,101.84L102.4,101.84z M107.61,97.67v2.51
	c0,0.23,0.11,0.34,0.33,0.34h0.81v1.18h-0.92c-0.98,0-1.47-0.49-1.47-1.48v-2.55h-1.15v-1.21h1.15v-0.98l1.25-0.61v1.59h1.24v1.21
	H107.61L107.61,97.67z M112.77,101.71l-0.03-0.41c-0.3,0.36-0.71,0.54-1.21,0.54c-0.67,0-1.18-0.2-1.54-0.6
	c-0.33-0.38-0.49-0.91-0.49-1.58v-3.2h1.27v3.38c0,0.55,0.3,0.83,0.89,0.83c0.33,0,0.58-0.11,0.77-0.34
	c0.17-0.2,0.26-0.46,0.26-0.79v-3.08h1.27v3.87c0,0.33,0.04,0.79,0.13,1.39H112.77L112.77,101.71z M117.23,97.48
	c-0.27,0-0.47,0.11-0.61,0.34c-0.13,0.19-0.19,0.41-0.19,0.68v3.21h-1.22v-3.87c0-0.3-0.04-0.77-0.12-1.41h1.25v0.44
	c0.27-0.37,0.59-0.56,0.94-0.56c0.21,0,0.43,0.03,0.64,0.1v1.2C117.63,97.53,117.4,97.48,117.23,97.48L117.23,97.48z M119.85,101.71
	h-1.27v-5.25h1.27V101.71L119.85,101.71z M118.58,95.34v-1.29h1.27v1.29H118.58L118.58,95.34z M124.18,101.71v-2.96
	c0-0.84-0.31-1.26-0.92-1.26c-0.66,0-0.99,0.38-0.99,1.13v3.09h-1.27v-3.88c0-0.21-0.05-0.67-0.15-1.4h1.31l0.03,0.42
	c0.25-0.36,0.66-0.54,1.21-0.54c0.67,0,1.18,0.2,1.54,0.6c0.33,0.39,0.5,0.91,0.5,1.58v3.22H124.18L124.18,101.71z M131.21,97.86
	v2.26c0,0.75-0.05,1.27-0.15,1.57c-0.16,0.45-0.47,0.8-0.93,1.06c-0.42,0.23-0.88,0.34-1.4,0.34c-1.48,0-2.24-0.58-2.26-1.74h1.24
	c0.07,0.41,0.42,0.61,1.05,0.61c0.75,0,1.15-0.32,1.2-0.96c-0.39,0.23-0.81,0.35-1.27,0.35c-0.72,0-1.3-0.23-1.75-0.69
	c-0.44-0.45-0.67-1.03-0.67-1.77c0-0.78,0.21-1.4,0.63-1.87c0.42-0.47,1.01-0.71,1.78-0.71c0.52,0,0.96,0.19,1.31,0.58l0.01-0.43
	h1.32C131.23,97.26,131.21,97.72,131.21,97.86L131.21,97.86z M128.73,97.47c-0.39,0-0.69,0.14-0.91,0.41
	c-0.19,0.25-0.28,0.57-0.28,0.96c0,0.39,0.1,0.7,0.31,0.96c0.21,0.25,0.5,0.38,0.89,0.38c0.4,0,0.7-0.13,0.92-0.39
	c0.19-0.24,0.28-0.56,0.28-0.97c0-0.39-0.11-0.71-0.32-0.97C129.41,97.6,129.11,97.47,128.73,97.47L128.73,97.47z M138.79,101.85
	c-1.12,0-1.97-0.38-2.57-1.14c-0.55-0.68-0.83-1.6-0.83-2.75c0-1.13,0.28-2.05,0.84-2.76c0.61-0.77,1.46-1.15,2.56-1.15
	c0.82,0,1.47,0.22,1.95,0.65c0.5,0.44,0.76,1.07,0.78,1.87h-1.35c-0.07-0.44-0.2-0.77-0.41-0.98c-0.2-0.2-0.52-0.3-0.97-0.3
	c-0.69,0-1.22,0.28-1.57,0.85c-0.29,0.47-0.44,1.08-0.44,1.82c0,0.74,0.15,1.35,0.44,1.8c0.35,0.56,0.87,0.84,1.57,0.84
	c0.8,0,1.29-0.44,1.48-1.33h1.37C141.42,100.99,140.47,101.85,138.79,101.85L138.79,101.85z M144.87,101.84
	c-0.8,0-1.44-0.27-1.92-0.8c-0.47-0.51-0.7-1.17-0.7-1.96c0-0.81,0.23-1.47,0.71-1.99c0.47-0.52,1.11-0.78,1.91-0.78
	c0.79,0,1.41,0.27,1.88,0.8c0.48,0.52,0.72,1.18,0.72,1.97s-0.24,1.44-0.71,1.95C146.28,101.57,145.65,101.84,144.87,101.84
	L144.87,101.84z M144.87,97.49c-0.43,0-0.76,0.16-0.99,0.49c-0.22,0.3-0.33,0.67-0.33,1.1c0,0.43,0.11,0.8,0.32,1.09
	c0.23,0.33,0.57,0.49,1,0.49c0.41,0,0.73-0.17,0.98-0.5c0.21-0.29,0.32-0.65,0.32-1.08c0-0.43-0.11-0.79-0.32-1.09
	C145.6,97.66,145.27,97.49,144.87,97.49L144.87,97.49z M154.29,101.71v-3.36c0-0.57-0.29-0.86-0.86-0.86
	c-0.31,0-0.53,0.12-0.68,0.35c-0.14,0.2-0.21,0.46-0.21,0.78v3.09h-1.21v-3.39c0-0.55-0.28-0.83-0.85-0.83
	c-0.31,0-0.54,0.12-0.7,0.35c-0.14,0.2-0.21,0.46-0.21,0.78v3.09h-1.21v-3.87c0-0.26-0.03-0.73-0.1-1.41h1.25l0.02,0.39
	c0.23-0.34,0.6-0.51,1.12-0.51c0.57,0,1.03,0.22,1.41,0.65c0.43-0.43,0.93-0.65,1.53-0.65c0.64,0,1.12,0.21,1.45,0.63
	c0.31,0.38,0.46,0.89,0.46,1.55v3.22H154.29L154.29,101.71z M161.03,100.91c-0.43,0.61-1.02,0.92-1.79,0.92
	c-0.49,0-0.94-0.13-1.36-0.39v1.64h-1.24v-5.23c0-0.15-0.05-0.63-0.14-1.43h1.28l0.04,0.47c0.3-0.4,0.76-0.6,1.39-0.6
	c0.76,0,1.36,0.31,1.79,0.92c0.37,0.53,0.55,1.15,0.55,1.87C161.56,99.8,161.38,100.41,161.03,100.91L161.03,100.91z M159.1,97.47
	c-0.41,0-0.72,0.16-0.94,0.47c-0.18,0.27-0.27,0.61-0.27,1.05c0,1.1,0.43,1.66,1.3,1.66c0.39,0,0.68-0.19,0.85-0.56
	c0.15-0.28,0.22-0.64,0.22-1.08c0-0.41-0.09-0.75-0.26-1.04C159.79,97.64,159.49,97.47,159.1,97.47L159.1,97.47z M165.32,101.72
	v-0.41c-0.29,0.36-0.7,0.54-1.24,0.54c-0.54,0-0.99-0.16-1.37-0.49c-0.37-0.32-0.55-0.75-0.55-1.28c0-0.67,0.29-1.17,0.86-1.5
	c0.44-0.24,1.03-0.36,1.76-0.36h0.47c0-0.27-0.06-0.47-0.19-0.59c-0.13-0.11-0.33-0.16-0.61-0.16c-0.3,0-0.51,0.05-0.63,0.14
	c-0.12,0.09-0.2,0.29-0.23,0.61h-1.29c0.06-0.62,0.28-1.09,0.67-1.42c0.37-0.33,0.87-0.49,1.49-0.49c0.63,0,1.13,0.15,1.49,0.45
	c0.37,0.32,0.56,0.79,0.56,1.41v2.13c0,0.43,0.04,0.9,0.12,1.41H165.32L165.32,101.72z M164.8,99.38c-0.91,0-1.36,0.24-1.36,0.71
	c0,0.19,0.08,0.33,0.23,0.44c0.15,0.11,0.32,0.16,0.51,0.16c0.69,0,1.05-0.44,1.09-1.31H164.8L164.8,99.38z M170.76,101.71v-2.96
	c0-0.84-0.31-1.26-0.92-1.26c-0.66,0-0.99,0.38-0.99,1.13v3.09h-1.27v-3.88c0-0.21-0.05-0.67-0.15-1.4h1.31l0.03,0.42
	c0.25-0.36,0.66-0.54,1.21-0.54c0.67,0,1.18,0.2,1.54,0.6c0.33,0.39,0.5,0.91,0.5,1.58v3.22H170.76L170.76,101.71z M175.57,103.09
	h-1.38l0.71-1.61l-2.12-5.02h1.42l1.39,3.49l1.44-3.49h1.37L175.57,103.09L175.57,103.09z M182.5,101.71V94.2h1.31v6.25h3.46v1.26
	H182.5L182.5,101.71z M190.18,97.67v2.51c0,0.23,0.11,0.34,0.33,0.34h0.81v1.18h-0.92c-0.98,0-1.47-0.49-1.47-1.48v-2.55h-1.15
	v-1.21h1.15v-0.98l1.25-0.61v1.59h1.24v1.21H190.18L190.18,97.67z M195.64,101.73l-0.02-0.5c-0.31,0.41-0.78,0.62-1.42,0.62
	c-0.75,0-1.34-0.28-1.77-0.83c-0.37-0.49-0.56-1.13-0.56-1.91c0-0.77,0.2-1.42,0.59-1.93c0.43-0.57,1.02-0.86,1.77-0.86
	c0.47,0,0.91,0.12,1.32,0.37V94.2h1.27v6.07c0,0.15,0.04,0.63,0.12,1.46H195.64L195.64,101.73z M194.3,97.5
	c-0.38,0-0.67,0.17-0.87,0.52c-0.17,0.29-0.25,0.63-0.25,1.03c0,0.43,0.06,0.79,0.19,1.07c0.19,0.37,0.47,0.55,0.84,0.55
	c0.89,0,1.34-0.55,1.34-1.64c0-0.43-0.09-0.78-0.28-1.06C195.04,97.66,194.72,97.5,194.3,97.5z"/>
</svg>
